<svg id="visual" viewBox="0 0 900 900" width="900" height="900" xmlns="http://www.w3.org/2000/svg" xmlns:xlink="http://www.w3.org/1999/xlink" version="1.1"><path d="M0 169L21.5 170.5C43 172 86 175 128.8 175.3C171.7 175.7 214.3 173.3 257.2 174.3C300 175.3 343 179.7 385.8 185C428.7 190.3 471.3 196.7 514.2 196C557 195.3 600 187.7 642.8 186.2C685.7 184.7 728.3 189.3 771.2 187C814 184.7 857 175.3 878.5 170.7L900 166L900 0L878.5 0C857 0 814 0 771.2 0C728.3 0 685.7 0 642.8 0C600 0 557 0 514.2 0C471.3 0 428.7 0 385.8 0C343 0 300 0 257.2 0C214.3 0 171.7 0 128.8 0C86 0 43 0 21.5 0L0 0Z" fill="#715df2"></path><path d="M0 142L21.5 140.8C43 139.7 86 137.3 128.8 140C171.7 142.7 214.3 150.3 257.2 155C300 159.7 343 161.3 385.8 158.3C428.7 155.3 471.3 147.7 514.2 146.5C557 145.3 600 150.7 642.8 151C685.7 151.3 728.3 146.7 771.2 144.5C814 142.3 857 142.7 878.5 142.8L900 143L900 0L878.5 0C857 0 814 0 771.2 0C728.3 0 685.7 0 642.8 0C600 0 557 0 514.2 0C471.3 0 428.7 0 385.8 0C343 0 300 0 257.2 0C214.3 0 171.7 0 128.8 0C86 0 43 0 21.5 0L0 0Z" fill="#374fbf"></path><path d="M0 114L21.5 113.7C43 113.3 86 112.7 128.8 109.8C171.7 107 214.3 102 257.2 103.2C300 104.3 343 111.7 385.8 114.8C428.7 118 471.3 117 514.2 114.7C557 112.3 600 108.7 642.8 108.7C685.7 108.7 728.3 112.3 771.2 112.8C814 113.3 857 110.7 878.5 109.3L900 108L900 0L878.5 0C857 0 814 0 771.2 0C728.3 0 685.7 0 642.8 0C600 0 557 0 514.2 0C471.3 0 428.7 0 385.8 0C343 0 300 0 257.2 0C214.3 0 171.7 0 128.8 0C86 0 43 0 21.5 0L0 0Z" fill="#003d8a"></path><path d="M0 71L21.5 71C43 71 86 71 128.8 73.2C171.7 75.3 214.3 79.7 257.2 83C300 86.3 343 88.7 385.8 85.5C428.7 82.3 471.3 73.7 514.2 72.5C557 71.3 600 77.7 642.8 79.8C685.7 82 728.3 80 771.2 82C814 84 857 90 878.5 93L900 96L900 0L878.5 0C857 0 814 0 771.2 0C728.3 0 685.7 0 642.8 0C600 0 557 0 514.2 0C471.3 0 428.7 0 385.8 0C343 0 300 0 257.2 0C214.3 0 171.7 0 128.8 0C86 0 43 0 21.5 0L0 0Z" fill="#002854"></path><path d="M0 53L21.5 49.3C43 45.7 86 38.3 128.8 37.8C171.7 37.3 214.3 43.7 257.2 47C300 50.3 343 50.7 385.8 47.7C428.7 44.7 471.3 38.3 514.2 38.2C557 38 600 44 642.8 44.8C685.7 45.7 728.3 41.3 771.2 38.7C814 36 857 35 878.5 34.5L900 34L900 0L878.5 0C857 0 814 0 771.2 0C728.3 0 685.7 0 642.8 0C600 0 557 0 514.2 0C471.3 0 428.7 0 385.8 0C343 0 300 0 257.2 0C214.3 0 171.7 0 128.8 0C86 0 43 0 21.5 0L0 0Z" fill="#001122"></path></svg>