<svg id="visual" viewBox="0 0 900 900" width="900" height="900" xmlns="http://www.w3.org/2000/svg" xmlns:xlink="http://www.w3.org/1999/xlink" version="1.1"><rect x="0" y="0" width="900" height="900" fill="#001122"></rect><defs><linearGradient id="grad1_0" x1="0%" y1="0%" x2="100%" y2="100%"><stop offset="30%" stop-color="#715df2" stop-opacity="1"></stop><stop offset="70%" stop-color="#715df2" stop-opacity="1"></stop></linearGradient></defs><defs><linearGradient id="grad1_1" x1="0%" y1="0%" x2="100%" y2="100%"><stop offset="30%" stop-color="#715df2" stop-opacity="1"></stop><stop offset="70%" stop-color="#3150bf" stop-opacity="1"></stop></linearGradient></defs><defs><linearGradient id="grad1_2" x1="0%" y1="0%" x2="100%" y2="100%"><stop offset="30%" stop-color="#003d8a" stop-opacity="1"></stop><stop offset="70%" stop-color="#3150bf" stop-opacity="1"></stop></linearGradient></defs><defs><linearGradient id="grad1_3" x1="0%" y1="0%" x2="100%" y2="100%"><stop offset="30%" stop-color="#003d8a" stop-opacity="1"></stop><stop offset="70%" stop-color="#002854" stop-opacity="1"></stop></linearGradient></defs><defs><linearGradient id="grad1_4" x1="0%" y1="0%" x2="100%" y2="100%"><stop offset="30%" stop-color="#001122" stop-opacity="1"></stop><stop offset="70%" stop-color="#002854" stop-opacity="1"></stop></linearGradient></defs><defs><linearGradient id="grad2_0" x1="0%" y1="0%" x2="100%" y2="100%"><stop offset="30%" stop-color="#715df2" stop-opacity="1"></stop><stop offset="70%" stop-color="#715df2" stop-opacity="1"></stop></linearGradient></defs><defs><linearGradient id="grad2_1" x1="0%" y1="0%" x2="100%" y2="100%"><stop offset="30%" stop-color="#3150bf" stop-opacity="1"></stop><stop offset="70%" stop-color="#715df2" stop-opacity="1"></stop></linearGradient></defs><defs><linearGradient id="grad2_2" x1="0%" y1="0%" x2="100%" y2="100%"><stop offset="30%" stop-color="#3150bf" stop-opacity="1"></stop><stop offset="70%" stop-color="#003d8a" stop-opacity="1"></stop></linearGradient></defs><defs><linearGradient id="grad2_3" x1="0%" y1="0%" x2="100%" y2="100%"><stop offset="30%" stop-color="#002854" stop-opacity="1"></stop><stop offset="70%" stop-color="#003d8a" stop-opacity="1"></stop></linearGradient></defs><defs><linearGradient id="grad2_4" x1="0%" y1="0%" x2="100%" y2="100%"><stop offset="30%" stop-color="#002854" stop-opacity="1"></stop><stop offset="70%" stop-color="#001122" stop-opacity="1"></stop></linearGradient></defs><g transform="translate(900, 0)"><path d="M0 318.2C-45.5 292.9 -91.1 267.6 -141 244.2C-190.9 220.9 -245.3 199.5 -275.6 159.1C-305.8 118.7 -312 59.4 -318.2 0L0 0Z" fill="#001d3a"></path><path d="M0 254.6C-36.4 234.3 -72.8 214.1 -112.8 195.4C-152.8 176.7 -196.2 159.6 -220.5 127.3C-244.7 95 -249.6 47.5 -254.6 0L0 0Z" fill="#00336f"></path><path d="M0 190.9C-27.3 175.7 -54.6 160.5 -84.6 146.5C-114.6 132.5 -147.2 119.7 -165.3 95.5C-183.5 71.2 -187.2 35.6 -190.9 0L0 0Z" fill="#0e47a5"></path><path d="M0 127.3C-18.2 117.2 -36.4 107 -56.4 97.7C-76.4 88.3 -98.1 79.8 -110.2 63.6C-122.3 47.5 -124.8 23.7 -127.3 0L0 0Z" fill="#5057d9"></path><path d="M0 63.6C-9.1 58.6 -18.2 53.5 -28.2 48.8C-38.2 44.2 -49.1 39.9 -55.1 31.8C-61.2 23.7 -62.4 11.9 -63.6 0L0 0Z" fill="#715df2"></path></g><g transform="translate(0, 900)"><path d="M0 -318.2C57.5 -311 115 -303.7 159.1 -275.6C203.2 -247.4 233.8 -198.4 258.1 -149C282.4 -99.6 300.3 -49.8 318.2 0L0 0Z" fill="#001d3a"></path><path d="M0 -254.6C46 -248.8 92 -243 127.3 -220.5C162.5 -197.9 187 -158.7 206.5 -119.2C225.9 -79.7 240.2 -39.8 254.6 0L0 0Z" fill="#00336f"></path><path d="M0 -190.9C34.5 -186.6 69 -182.2 95.5 -165.3C121.9 -148.5 140.3 -119 154.8 -89.4C169.4 -59.8 180.2 -29.9 190.9 0L0 0Z" fill="#0e47a5"></path><path d="M0 -127.3C23 -124.4 46 -121.5 63.6 -110.2C81.3 -99 93.5 -79.4 103.2 -59.6C112.9 -39.8 120.1 -19.9 127.3 0L0 0Z" fill="#5057d9"></path><path d="M0 -63.6C11.5 -62.2 23 -60.7 31.8 -55.1C40.6 -49.5 46.8 -39.7 51.6 -29.8C56.5 -19.9 60.1 -10 63.6 0L0 0Z" fill="#715df2"></path></g></svg>