<svg id="visual" viewBox="0 0 450 900" width="450" height="900" xmlns="http://www.w3.org/2000/svg" xmlns:xlink="http://www.w3.org/1999/xlink" version="1.1"><path d="M0 695L10.7 698C21.3 701 42.7 707 64.2 706.8C85.7 706.7 107.3 700.3 128.8 702.8C150.3 705.3 171.7 716.7 193 722C214.3 727.3 235.7 726.7 257 720C278.3 713.3 299.7 700.7 321.2 694.8C342.7 689 364.3 690 385.8 692.2C407.3 694.3 428.7 697.7 439.3 699.3L450 701L450 901L439.3 901C428.7 901 407.3 901 385.8 901C364.3 901 342.7 901 321.2 901C299.7 901 278.3 901 257 901C235.7 901 214.3 901 193 901C171.7 901 150.3 901 128.8 901C107.3 901 85.7 901 64.2 901C42.7 901 21.3 901 10.7 901L0 901Z" fill="#715df2"></path><path d="M0 767L10.7 764.8C21.3 762.7 42.7 758.3 64.2 753.7C85.7 749 107.3 744 128.8 740.8C150.3 737.7 171.7 736.3 193 736C214.3 735.7 235.7 736.3 257 734.8C278.3 733.3 299.7 729.7 321.2 729.5C342.7 729.3 364.3 732.7 385.8 739.3C407.3 746 428.7 756 439.3 761L450 766L450 901L439.3 901C428.7 901 407.3 901 385.8 901C364.3 901 342.7 901 321.2 901C299.7 901 278.3 901 257 901C235.7 901 214.3 901 193 901C171.7 901 150.3 901 128.8 901C107.3 901 85.7 901 64.2 901C42.7 901 21.3 901 10.7 901L0 901Z" fill="#374fbf"></path><path d="M0 785L10.7 786.3C21.3 787.7 42.7 790.3 64.2 792.8C85.7 795.3 107.3 797.7 128.8 798.8C150.3 800 171.7 800 193 797.3C214.3 794.7 235.7 789.3 257 788.8C278.3 788.3 299.7 792.7 321.2 790.8C342.7 789 364.3 781 385.8 777.5C407.3 774 428.7 775 439.3 775.5L450 776L450 901L439.3 901C428.7 901 407.3 901 385.8 901C364.3 901 342.7 901 321.2 901C299.7 901 278.3 901 257 901C235.7 901 214.3 901 193 901C171.7 901 150.3 901 128.8 901C107.3 901 85.7 901 64.2 901C42.7 901 21.3 901 10.7 901L0 901Z" fill="#003d8a"></path><path d="M0 828L10.7 825.2C21.3 822.3 42.7 816.7 64.2 816.5C85.7 816.3 107.3 821.7 128.8 824.8C150.3 828 171.7 829 193 828.3C214.3 827.7 235.7 825.3 257 825.2C278.3 825 299.7 827 321.2 825C342.7 823 364.3 817 385.8 817.3C407.3 817.7 428.7 824.3 439.3 827.7L450 831L450 901L439.3 901C428.7 901 407.3 901 385.8 901C364.3 901 342.7 901 321.2 901C299.7 901 278.3 901 257 901C235.7 901 214.3 901 193 901C171.7 901 150.3 901 128.8 901C107.3 901 85.7 901 64.2 901C42.7 901 21.3 901 10.7 901L0 901Z" fill="#002854"></path><path d="M0 854L10.7 854.8C21.3 855.7 42.7 857.3 64.2 858.5C85.7 859.7 107.3 860.3 128.8 859.8C150.3 859.3 171.7 857.7 193 856.2C214.3 854.7 235.7 853.3 257 851.2C278.3 849 299.7 846 321.2 845.2C342.7 844.3 364.3 845.7 385.8 846.2C407.3 846.7 428.7 846.3 439.3 846.2L450 846L450 901L439.3 901C428.7 901 407.3 901 385.8 901C364.3 901 342.7 901 321.2 901C299.7 901 278.3 901 257 901C235.7 901 214.3 901 193 901C171.7 901 150.3 901 128.8 901C107.3 901 85.7 901 64.2 901C42.7 901 21.3 901 10.7 901L0 901Z" fill="#001122"></path></svg>