<svg id="visual" viewBox="0 0 900 600" width="900" height="600" xmlns="http://www.w3.org/2000/svg" xmlns:xlink="http://www.w3.org/1999/xlink" version="1.1"><rect x="0" y="0" width="900" height="600" fill="#140021"></rect><path d="M0 348L129 348L129 374L257 374L257 378L386 378L386 328L514 328L514 357L643 357L643 260L771 260L771 339L900 339L900 328L900 601L900 601L771 601L771 601L643 601L643 601L514 601L514 601L386 601L386 601L257 601L257 601L129 601L129 601L0 601Z" fill="#9900ff"></path><path d="M0 353L129 353L129 385L257 385L257 417L386 417L386 440L514 440L514 353L643 353L643 453L771 453L771 407L900 407L900 458L900 601L900 601L771 601L771 601L643 601L643 601L514 601L514 601L386 601L386 601L257 601L257 601L129 601L129 601L0 601Z" fill="#7700c6"></path><path d="M0 445L129 445L129 502L257 502L257 529L386 529L386 480L514 480L514 444L643 444L643 465L771 465L771 501L900 501L900 462L900 601L900 601L771 601L771 601L643 601L643 601L514 601L514 601L386 601L386 601L257 601L257 601L129 601L129 601L0 601Z" fill="#560090"></path></svg>